# xmcd CD database file
#
# Track frame offsets:
#	150
#	24554
#	56675
#	83059
#	113197
#	126051
#	148919
#	198510
#
# Disc length: 4698 seconds
#
# Revision: 0
# Processed by: cddbd v1.5.2PL0 Copyright (c) Steve Scherf et al.
# Submitted via: CDex 1.51
#
DISCID=6f125808
DTITLE=Electro Deluxe Big Band - Live In Paris - CD2
DYEAR=2012
DGENRE=Jazz
TTITLE0=Back To The Riddle (Live)
TTITLE1=Point G  (Live)
TTITLE2=Old Stuff (Live)
TTITLE3=Where Is The Love? (Live)
TTITLE4=Talking About Good Love... (Live)
TTITLE5=Talking After Good Love (Live)
TTITLE6=Peel Me (Live)
TTITLE7=Video Track
EXTD=YEAR: 2012
EXTT0=
EXTT1=
EXTT2=
EXTT3=
EXTT4=
EXTT5=
EXTT6=
EXTT7=
PLAYORDER=
